<svg xmlns="http://www.w3.org/2000/svg" version="1.1" xmlns:xlink="http://www.w3.org/1999/xlink" xmlns:svgjs="http://svgjs.dev/svgjs" width="100%" height="100%" viewBox="0 0 1000 600"><rect width="1000" height="600" x="0" y="0" fill="#4154f1"/><g><circle r="166.66666666666666" cx="433.87369791666663" cy="456.0959156668757" fill="#ffffff" transform="matrix(0.467801990016265,0,0,0.467801990016265,0,86.63740960344259)"/><path d="M406.67436229990744 381.09585913901793L461.10345481429664 381.09585913901793Q465.37001301811216 381.09585913901793 469.7279974691523 381.43108871217487Q474.0555065044509 381.7358428695903 477.5906547304694 383.2291382409257Q481.125802956488 384.75290902800265 483.3200328898788 387.80045060215656Q485.51426282326963 390.84799217631047 485.51426282326963 396.30309159404607L485.51426282326963 396.30309159404607Q485.51426282326963 401.66676476455694 483.3200328898788 404.7143063387109Q481.125802956488 407.79232332860636 477.5906547304694 409.28561869994184Q474.0555065044509 410.77891407127726 469.7279974691523 411.14461906017567Q465.37001301811216 411.54079946481573 461.10345481429664 411.54079946481573L461.10345481429664 411.54079946481573L450.162780563084 411.54079946481573L450.162780563084 506.6545719941599Q450.162780563084 511.2868351868739 449.88850182141016 515.6752950536555Q449.6142230797363 520.0637549204372 448.12092770840087 523.4770014834896Q446.62763233706545 526.9207234622835 443.30581202123767 528.9930517327082Q439.9839917054099 531.0958554188744 433.88890855710207 531.0958554188744L433.88890855710207 531.0958554188744Q427.7633499930526 531.0958554188744 424.4415296772249 528.9930517327082Q421.11970936139704 526.9207234622835 419.6264139900616 523.4770014834896Q418.1331186187262 520.0637549204372 417.8588398770524 515.6752950536555Q417.5845611353785 511.2868351868739 417.5845611353785 506.6545719941599L417.5845611353785 506.6545719941599L417.5845611353785 411.54079946481573L406.67436229990744 411.54079946481573Q402.3773286803504 411.54079946481573 398.0498196450518 411.14461906017567Q393.6918351940117 410.77891407127726 390.15668696799315 409.28561869994184Q386.6215387419746 407.79232332860636 384.42730880858375 404.7143063387109Q382.2330788751929 401.66676476455694 382.2330788751929 396.30309159404607L382.2330788751929 396.30309159404607Q382.2330788751929 390.84799217631047 384.42730880858375 387.80045060215656Q386.6215387419746 384.75290902800265 390.15668696799315 383.2291382409257Q393.6918351940117 381.7358428695903 398.0498196450518 381.43108871217487Q402.3773286803504 381.09585913901793 406.67436229990744 381.09585913901793L406.67436229990744 381.09585913901793Z " fill="#4154f1" transform="matrix(0.467801990016265,0,0,0.467801990016265,0,86.63740960344259)"/><path d="M708.176703661056 381.0958591179748L762.2979157822681 381.0958591179748Q766.5403400246922 381.0958591179748 770.8736733580257 381.4291924513081Q775.176703661056 381.73222275433847 778.6918551762075 383.2170712391869Q782.207006691359 384.7322227543384 784.3888248731771 387.76252578464147Q786.5706430549953 390.79282881494447 786.5706430549953 396.2170712391869L786.5706430549953 396.2170712391869Q786.5706430549953 401.5504045725202 784.3888248731771 404.5807076028233Q782.207006691359 407.64131366342934 778.6918551762075 409.12616214827784Q775.176703661056 410.61101063312634 770.8736733580257 410.97464699676266Q766.5403400246922 411.3685863907021 762.2979157822681 411.3685863907021L762.2979157822681 411.3685863907021L751.4191279034802 411.3685863907021L751.4191279034802 505.94434396645966Q751.4191279034802 510.5504045725203 751.146400630753 514.9140409361567Q750.8736733580257 519.2776772997929 749.3888248731772 522.6716166937324Q747.9039763883287 526.0958591179748 744.6009460852983 528.1564651785809Q741.2979157822681 530.2473742694899 735.237309721662 530.2473742694899L735.237309721662 530.2473742694899Q729.146400630753 530.2473742694899 725.8433703277226 528.1564651785809Q722.5403400246922 526.0958591179748 721.0554915398438 522.6716166937324Q719.5706430549953 519.2776772997929 719.2979157822681 514.9140409361567Q719.0251885095407 510.5504045725203 719.0251885095407 505.94434396645966L719.0251885095407 505.94434396645966L719.0251885095407 411.3685863907021L708.176703661056 411.3685863907021Q703.9039763883287 411.3685863907021 699.6009460852983 410.97464699676266Q695.267612751965 410.61101063312634 691.7524612368135 409.12616214827784Q688.237309721662 407.64131366342934 686.0554915398438 404.5807076028233Q683.8736733580257 401.5504045725202 683.8736733580257 396.2170712391869L683.8736733580257 396.2170712391869Q683.8736733580257 390.79282881494447 686.0554915398438 387.76252578464147Q688.237309721662 384.7322227543384 691.7524612368135 383.2170712391869Q695.267612751965 381.73222275433847 699.6009460852983 381.4291924513081Q703.9039763883287 381.0958591179748 708.176703661056 381.0958591179748L708.176703661056 381.0958591179748ZM887.1464006307529 462.9140409361566L887.1464006307529 469.5201015422172Q887.1464006307529 471.2170712391869 886.9342794186316 473.5201015422172Q886.7221582065105 475.82313184524753 885.2676127519651 477.8837379058536Q883.8433703277226 479.97464699676266 880.7524612368135 481.45949548161116Q877.6615521459044 482.94434396645966 872.0251885095407 482.94434396645966L872.0251885095407 482.94434396645966L829.6312491156013 482.94434396645966L829.6312491156013 493.18676820888385Q829.6312491156013 495.7322227543384 830.267612751965 498.48979851191416Q830.9039763883286 501.27767729979297 832.4494309337832 503.6110106331263Q833.9948854792377 505.94434396645966 836.5403400246923 507.45949548161116Q839.0857945701468 508.94434396645966 842.8130672974196 508.94434396645966L842.8130672974196 508.94434396645966Q847.0857945701468 508.94434396645966 849.3888248731771 507.9140409361566Q851.6615521459045 506.9140409361566 852.9948854792377 505.42919245130815Q854.3282188125711 503.94434396645966 855.3888248731771 502.2170712391869Q856.4494309337832 500.5201015422172 858.207006691359 499.0352530573687Q859.9645824489347 497.5504045725202 863.1160976004498 496.5201015422172Q866.2676127519651 495.5201015422172 871.8130672974196 495.5201015422172L871.8130672974196 495.5201015422172Q874.4797339640862 495.5201015422172 876.9645824489347 495.94434396645966Q879.4797339640862 496.36858639070203 881.3888248731771 497.5504045725202Q883.2979157822681 498.7019197240354 884.4797339640862 500.79282881494447Q885.6615521459045 502.85343487555053 885.6615521459045 506.15646517858085L885.6615521459045 506.15646517858085Q885.6615521459045 513.0958591179748 881.2979157822681 517.7322227543384Q876.9039763883286 522.368586390702 870.3282188125711 525.1261621482778Q863.7221582065105 527.9140409361567 855.9948854792377 529.0655560876718Q848.2676127519651 530.2473742694899 841.5403400246923 530.2473742694899L841.5403400246923 530.2473742694899Q832.6918551762075 530.1261621482778 824.7221582065105 528.0049500270657Q816.7221582065105 525.8837379058535 810.6009460852983 521.1867682088839Q804.4797339640862 516.4897985119142 800.8433703277226 508.94434396645966Q797.237309721662 501.36858639070203 797.237309721662 490.3988894210051L797.237309721662 490.3988894210051L797.237309721662 465.45949548161116Q797.237309721662 455.36858639070203 799.6312491156013 448.30798033009603Q802.0251885095408 441.27767729979297 805.8736733580256 436.6110106331263Q809.6918551762075 431.9140409361566 814.4797339640862 429.307980330096Q819.2979157822681 426.7019197240354 824.176703661056 425.4291924513081Q829.0857945701468 424.1261621482778 833.5100369943892 423.82313184524753Q837.9342794186317 423.48979851191416 841.1160976004498 423.48979851191416L841.1160976004498 423.48979851191416Q851.8736733580256 423.48979851191416 859.5100369943892 425.4291924513081Q867.1160976004498 427.33828336039903 872.237309721662 430.42919245130815Q877.3585218428741 433.5201015422172 880.3282188125711 437.5504045725202Q883.2979157822681 441.6110106331263 884.8130672974196 445.9140409361566Q886.2979157822681 450.2473742694899 886.7221582065105 454.67161669373235Q887.1464006307529 459.0958591179748 887.1464006307529 462.9140409361566L887.1464006307529 462.9140409361566ZM829.6312491156013 459.5201015422172L829.6312491156013 466.97464699676266L856.237309721662 466.97464699676266Q856.237309721662 461.94434396645966 855.9948854792377 458.0655560876718Q855.7221582065105 454.1867682088839 854.3888248731771 451.5201015422172Q853.0554915398438 448.85343487555053 850.237309721662 447.45949548161116Q847.4191279034802 446.0958591179748 842.176703661056 446.0958591179748L842.176703661056 446.0958591179748Q837.8130672974196 446.0958591179748 835.3282188125711 447.45949548161116Q832.8130672974196 448.85343487555053 831.5403400246923 450.94434396645966Q830.267612751965 453.0049500270657 829.9342794186317 455.36858639070203Q829.6312491156013 457.7019197240354 829.6312491156013 459.5201015422172L829.6312491156013 459.5201015422172ZM937.4191279034801 460.36858639070203L937.4191279034801 493.3988894210051Q937.4191279034801 495.0958591179748 937.7524612368135 497.7019197240354Q938.0554915398438 500.30798033009603 939.237309721662 502.82313184524753Q940.4191279034802 505.307980330096 942.6918551762075 507.1261621482778Q944.9948854792377 508.94434396645966 948.9342794186316 508.94434396645966L948.9342794186316 508.94434396645966Q953.6312491156013 508.94434396645966 956.2979157822681 507.8837379058536Q958.9645824489346 506.8231318452475 960.237309721662 504.94434396645966Q961.5100369943893 503.0958591179748 961.8130672974196 500.5807076028233Q962.1464006307529 498.0655560876718 962.1464006307529 495.30798033009603L962.1464006307529 495.30798033009603Q962.1464006307529 493.9140409361566 962.6312491156013 492.15646517858085Q963.1160976004498 490.3988894210051 964.9039763883286 488.85343487555053Q966.7221582065105 487.30798033009603 970.2979157822681 486.30798033009603Q973.8736733580256 485.27767729979297 980.0554915398438 485.27767729979297L980.0554915398438 485.27767729979297Q985.6918551762075 485.27767729979297 988.7827642671166 486.5807076028233Q991.8736733580256 487.85343487555053 993.2979157822681 489.61101063312634Q994.7524612368135 491.36858639070203 994.9645824489347 493.2170712391869Q995.1767036610559 495.0958591179748 995.1767036610559 496.15646517858085L995.1767036610559 496.15646517858085Q995.1767036610559 502.97464699676266 993.0857945701468 508.15646517858085Q991.0251885095408 513.3079803300959 987.5100369943893 517.0958591179748Q983.9948854792377 520.8837379058535 979.4191279034801 523.4291924513082Q974.8130672974196 525.9746469967627 969.6615521459044 527.4897985119142Q964.4797339640862 528.9746469967627 959.1767036610559 529.6110106331263Q953.8433703277226 530.2473742694899 948.9342794186316 530.2473742694899L948.9342794186316 530.2473742694899Q940.5100369943893 530.2473742694899 932.6312491156013 528.0049500270657Q924.7524612368136 525.7625257846414 918.6312491156013 520.9746469967627Q912.5100369943892 516.1867682088839 908.7827642671165 508.67161669373235Q905.0554915398438 501.15646517858085 905.0554915398438 490.6110106331263L905.0554915398438 490.6110106331263L905.0554915398438 465.7019197240354Q905.0554915398438 455.5807076028233 907.4494309337832 448.5504045725202Q909.8433703277226 441.48979851191416 913.6615521459045 436.82313184524753Q917.5100369943892 432.1261621482778 922.2979157822681 429.5201015422172Q927.0857945701468 426.9140409361566 931.9948854792377 425.64131366342934Q936.9039763883286 424.33828336039903 941.3282188125711 424.0352530573687Q945.7524612368135 423.7019197240354 948.9342794186316 423.7019197240354L948.9342794186316 423.7019197240354Q958.4191279034801 423.7019197240354 965.5100369943893 425.307980330096Q972.6009460852983 426.9140409361566 977.6918551762075 429.5807076028233Q982.8130672974196 432.2473742694899 986.1767036610559 435.7019197240354Q989.5100369943892 439.15646517858085 991.4494309337831 443.0049500270657Q993.3585218428741 446.82313184524753 994.1464006307529 450.67161669373235Q994.9645824489347 454.48979851191416 994.9645824489347 457.79282881494447L994.9645824489347 457.79282881494447Q994.9645824489347 459.5201015422172 994.7524612368135 461.79282881494447Q994.5403400246923 464.0958591179748 993.0857945701468 466.15646517858085Q991.6615521459044 468.2473742694899 988.5706430549953 469.7322227543384Q985.4797339640862 471.2170712391869 979.8433703277226 471.2170712391869L979.8433703277226 471.2170712391869Q977.8130672974196 471.2170712391869 974.7827642671165 471.0655560876718Q971.7221582065105 470.9140409361566 968.8433703277226 469.94434396645966Q965.9948854792377 469.00495002706566 963.9645824489347 466.97464699676266Q961.9342794186316 464.94434396645966 961.9342794186316 461.2170712391869L961.9342794186316 461.2170712391869Q961.9342794186316 458.64131366342934 961.6615521459044 456.2473742694899Q961.3888248731771 453.85343487555053 960.1160976004498 452.0655560876718Q958.8433703277226 450.2473742694899 956.2373097216621 449.1261621482778Q953.6312491156013 448.00495002706566 948.9342794186316 448.00495002706566L948.9342794186316 448.00495002706566Q944.9948854792377 448.00495002706566 942.6918551762075 449.27767729979297Q940.4191279034802 450.5504045725202 939.237309721662 452.48979851191416Q938.0554915398438 454.3988894210051 937.7524612368135 456.5201015422172Q937.4191279034801 458.64131366342934 937.4191279034801 460.36858639070203L937.4191279034801 460.36858639070203ZM1104.4797339640863 461.85343487555053L1104.4797339640863 506.15646517858085Q1104.4797339640863 510.64131366342934 1103.9948854792378 514.9746469967627Q1103.5100369943893 519.2776772997929 1101.8736733580258 522.6716166937324Q1100.2070066913589 526.0958591179748 1097.0251885095408 528.1564651785809Q1093.8130672974198 530.2473742694899 1088.2676127519653 530.2473742694899L1088.2676127519653 530.2473742694899Q1082.7524612368134 530.2473742694899 1079.4797339640863 528.1564651785809Q1076.2373097216623 526.0958591179748 1074.4797339640863 522.6716166937324Q1072.7221582065104 519.2776772997929 1072.2070066913589 514.9746469967627Q1071.6615521459044 510.64131366342934 1071.6615521459044 506.15646517858085L1071.6615521459044 506.15646517858085L1071.6615521459044 464.1867682088839Q1071.6615521459044 461.42919245130815 1071.4494309337833 458.7019197240354Q1071.2373097216623 456.00495002706566 1070.2676127519653 453.85343487555053Q1069.3282188125713 451.7322227543384 1067.4494309337833 450.3988894210051Q1065.6009460852983 449.0655560876718 1062.2979157822683 449.0655560876718L1062.2979157822683 449.0655560876718Q1058.0251885095408 449.0655560876718 1055.3585218428743 451.8837379058536Q1052.6918551762074 454.7019197240354 1051.1464006307529 459.67161669373235Q1049.6009460852983 464.6110106331263 1049.0251885095408 471.3988894210051Q1048.4494309337833 478.15646517858085 1048.4494309337833 485.9140409361566L1048.4494309337833 485.9140409361566L1048.4494309337833 506.15646517858085Q1048.4494309337833 510.64131366342934 1047.9645824489348 514.9746469967627Q1047.4797339640863 519.2776772997929 1045.7827642671164 522.6716166937324Q1044.0554915398438 526.0958591179748 1040.7827642671164 528.1564651785809Q1037.4797339640863 530.2473742694899 1031.8130672974198 530.2473742694899L1031.8130672974198 530.2473742694899Q1026.2676127519653 530.2473742694899 1023.0857945701468 528.1564651785809Q1019.8736733580256 526.0958591179748 1018.237309721662 522.6716166937324Q1016.5706430549953 519.2776772997929 1016.1160976004498 514.9746469967627Q1015.6312491156013 510.64131366342934 1015.6312491156013 506.15646517858085L1015.6312491156013 506.15646517858085L1015.6312491156013 405.18676820888385Q1015.6312491156013 400.7019197240354 1016.1160976004498 396.3988894210051Q1016.5706430549953 392.0655560876717 1018.237309721662 388.67161669373235Q1019.8736733580256 385.24737426948997 1023.0857945701468 383.18676820888385Q1026.2676127519653 381.0958591179748 1031.8130672974198 381.0958591179748L1031.8130672974198 381.0958591179748Q1037.4797339640863 381.0958591179748 1040.7827642671164 383.18676820888385Q1044.0554915398438 385.24737426948997 1045.7827642671164 388.67161669373235Q1047.4797339640863 392.0655560876717 1047.9645824489348 396.3988894210051Q1048.4494309337833 400.7019197240354 1048.4494309337833 405.18676820888385L1048.4494309337833 405.18676820888385L1048.4494309337833 441.6110106331263Q1049.3888248731773 438.5201015422172 1051.2070066913589 435.33828336039903Q1053.0251885095408 432.1261621482778 1055.9039763883288 429.5807076028233Q1058.7827642671164 427.0049500270657 1062.6615521459044 425.36858639070203Q1066.5403400246923 423.7019197240354 1071.6615521459044 423.7019197240354L1071.6615521459044 423.7019197240354Q1077.5100369943893 423.7019197240354 1083.4494309337833 425.67161669373235Q1089.3585218428743 427.64131366342934 1093.9948854792378 432.1261621482778Q1098.6009460852983 436.6110106331263 1101.5403400246923 443.9140409361566Q1104.4797339640863 451.1867682088839 1104.4797339640863 461.85343487555053L1104.4797339640863 461.85343487555053ZM1203.5403400246923 381.0958591179748L1203.5403400246923 381.0958591179748Q1206.6312491156013 381.0958591179748 1209.5100369943893 382.15646517858085Q1212.3888248731773 383.2170712391869 1214.5706430549953 385.0352530573687Q1216.7524612368134 386.85343487555053 1218.0554915398438 389.36858639070203Q1219.3282188125713 391.85343487555053 1219.3282188125713 394.7322227543384L1219.3282188125713 394.7322227543384Q1219.3282188125713 396.12616214827784 1219.1464006307529 397.33828336039903Q1218.9948854792378 398.5807076028232 1218.7827642671164 399.5201015422172L1218.7827642671164 399.5201015422172Q1218.4797339640863 400.7019197240354 1218.2676127519649 401.5504045725202L1218.2676127519649 401.5504045725202Q1210.9948854792378 430.0049500270657 1203.1160976004498 459.5504045725203Q1195.2373097216619 489.1261621482778 1187.9948854792378 517.4594954816112L1187.9948854792378 517.4594954816112Q1186.3888248731773 521.0958591179748 1183.7221582065104 523.8534348755505L1183.7221582065104 523.8534348755505Q1181.5100369943893 526.307980330096 1177.9342794186318 528.2776772997929Q1174.3585218428743 530.2473742694899 1169.0251885095408 530.2473742694899L1169.0251885095408 530.2473742694899L1165.6312491156013 530.2473742694899Q1160.2979157822679 530.2473742694899 1156.6918551762074 528.2776772997929Q1153.0554915398438 526.307980330096 1150.8130672974198 523.8534348755505L1150.8130672974198 523.8534348755505Q1148.1464006307529 521.0958591179748 1146.6615521459044 517.4594954816112L1146.6615521459044 517.4594954816112L1116.4191279034803 401.5504045725202Q1116.0857945701468 400.7019197240354 1115.8736733580258 399.5201015422172L1115.8736733580258 399.5201015422172Q1115.3282188125713 397.3988894210051 1115.3282188125713 394.7322227543384L1115.3282188125713 394.7322227543384Q1115.3282188125713 391.85343487555053 1116.5706430549953 389.36858639070203Q1117.7827642671164 386.85343487555053 1119.9342794186318 385.0352530573687Q1122.0554915398438 383.2170712391869 1124.9342794186318 382.15646517858085Q1127.8130672974198 381.0958591179748 1131.1160976004498 381.0958591179748L1131.1160976004498 381.0958591179748Q1136.2373097216619 381.0958591179748 1139.3585218428743 383.33828336039903Q1142.5100369943893 385.5807076028233 1144.3282188125713 388.33828336039903L1144.3282188125713 388.33828336039903Q1146.3282188125713 391.5504045725202 1147.2979157822683 395.5807076028233L1147.2979157822683 395.5807076028233Q1148.5706430549953 400.7019197240354 1150.0857945701468 407.15646517858085Q1151.5706430549953 413.5807076028233 1153.0554915398438 420.5201015422172Q1154.5403400246923 427.4291924513081 1156.0857945701468 434.64131366342934Q1157.6312491156013 441.82313184524753 1159.0251885095408 448.5504045725202L1159.0251885095408 448.5504045725202Q1162.3282188125713 464.30798033009603 1165.6312491156013 480.82313184524753L1165.6312491156013 480.82313184524753L1169.0251885095408 480.82313184524753Q1172.6615521459044 464.30798033009603 1176.0554915398438 448.5504045725202L1176.0554915398438 448.5504045725202Q1177.4494309337833 441.82313184524753 1178.9948854792378 434.64131366342934Q1180.5403400246923 427.4291924513081 1182.0251885095408 420.5201015422172Q1183.5100369943893 413.5807076028233 1184.9039763883288 407.15646517858085Q1186.2979157822683 400.7019197240354 1187.3585218428743 395.5807076028233L1187.3585218428743 395.5807076028233Q1188.4191279034803 391.5504045725202 1190.4494309337833 388.33828336039903L1190.4494309337833 388.33828336039903Q1192.2676127519653 385.5807076028233 1195.3585218428743 383.33828336039903Q1198.4494309337833 381.0958591179748 1203.5403400246923 381.0958591179748ZM1228.4797339640863 490.1867682088839L1228.4797339640863 463.76252578464147Q1228.4797339640863 453.97464699676266 1231.1464006307529 447.15646517858085Q1233.8130672974198 440.33828336039903 1238.0251885095408 435.76252578464147Q1242.2373097216619 431.15646517858085 1247.3888248731773 428.6110106331263Q1252.5706430549953 426.0655560876717 1257.5706430549953 424.79282881494447Q1262.5706430549953 423.48979851191416 1266.8736733580258 423.1867682088839Q1271.2070066913589 422.85343487555053 1273.6615521459044 422.85343487555053L1273.6615521459044 422.85343487555053Q1276.1160976004498 422.85343487555053 1280.3585218428743 423.1867682088839Q1284.6312491156013 423.48979851191416 1289.4797339640863 424.79282881494447Q1294.3282188125713 426.0655560876717 1299.2676127519653 428.6110106331263Q1304.2373097216623 431.15646517858085 1308.2070066913593 435.76252578464147Q1312.2070066913593 440.33828336039903 1314.7827642671168 447.15646517858085Q1317.3282188125713 453.97464699676266 1317.3282188125713 463.76252578464147L1317.3282188125713 463.76252578464147L1317.3282188125713 490.1867682088839Q1317.3282188125713 500.00495002706566 1314.7827642671168 506.8231318452475Q1312.2070066913593 513.6413136634293 1308.2070066913593 518.2170712391869Q1304.2373097216623 522.7928288149444 1299.2676127519653 525.338283360399Q1294.3282188125713 527.9140409361567 1289.4797339640863 529.1867682088839Q1284.6312491156013 530.4594954816112 1280.3585218428743 530.7928288149444Q1276.1160976004498 531.0958591179748 1273.6615521459044 531.0958591179748L1273.6615521459044 531.0958591179748Q1271.2070066913589 531.0958591179748 1266.8736733580258 530.7928288149444Q1262.5706430549953 530.4594954816112 1257.5706430549953 529.1867682088839Q1252.5706430549953 527.9140409361567 1247.3888248731773 525.338283360399Q1242.2373097216619 522.7928288149444 1238.0251885095408 518.2170712391869Q1233.8130672974198 513.6413136634293 1231.1464006307529 506.8231318452475Q1228.4797339640863 500.00495002706566 1228.4797339640863 490.1867682088839L1228.4797339640863 490.1867682088839ZM1261.2979157822683 459.0958591179748L1261.2979157822683 497.64131366342934Q1261.3888248731773 500.7322227543384 1262.7827642671164 503.0958591179748L1262.7827642671164 503.0958591179748Q1263.9645824489348 505.2170712391869 1266.4494309337833 506.85343487555053Q1268.9645824489348 508.5201015422172 1273.6615521459044 508.5201015422172L1273.6615521459044 508.5201015422172Q1278.1160976004498 508.5201015422172 1280.5100369943893 506.85343487555053Q1282.9342794186318 505.2170712391869 1284.0857945701468 503.0958591179748L1284.0857945701468 503.0958591179748Q1285.3585218428743 500.7322227543384 1285.5706430549953 497.64131366342934L1285.5706430549953 497.64131366342934L1285.5706430549953 459.0958591179748Q1285.3585218428743 455.8837379058536 1284.0857945701468 453.2170712391869L1284.0857945701468 453.2170712391869Q1282.9342794186318 451.0958591179748 1280.5100369943893 449.2170712391869Q1278.1160976004498 447.36858639070203 1273.6615521459044 447.36858639070203L1273.6615521459044 447.36858639070203Q1268.9645824489348 447.36858639070203 1266.4494309337833 449.2170712391869Q1263.9645824489348 451.0958591179748 1262.7827642671164 453.2170712391869L1262.7827642671164 453.2170712391869Q1261.3888248731773 455.8837379058536 1261.2979157822683 459.0958591179748L1261.2979157822683 459.0958591179748ZM1340.5403400246923 506.36858639070203L1340.5403400246923 404.76252578464147Q1340.5403400246923 400.27767729979297 1341.0251885095408 396.0049500270657Q1341.5100369943893 391.76252578464147 1343.2070066913593 388.45949548161116Q1344.9342794186318 385.15646517858085 1348.1160976004498 383.12616214827784Q1351.3282188125713 381.0958591179748 1356.7524612368138 381.0958591179748L1356.7524612368138 381.0958591179748Q1362.2979157822683 381.0958591179748 1365.4797339640863 383.12616214827784Q1368.6918551762078 385.15646517858085 1370.3282188125713 388.45949548161116Q1371.9948854792378 391.76252578464147 1372.4494309337833 396.0049500270657Q1372.9342794186318 400.27767729979297 1372.9342794186318 404.76252578464147L1372.9342794186318 404.76252578464147L1372.9342794186318 506.36858639070203Q1372.9342794186318 510.85343487555053 1372.4494309337833 515.1867682088839Q1371.9948854792378 519.4897985119142 1370.3282188125713 522.8534348755505Q1368.6918551762078 526.1867682088839 1365.4797339640863 528.2170712391869Q1362.2979157822683 530.2473742694899 1356.7524612368138 530.2473742694899L1356.7524612368138 530.2473742694899Q1351.3282188125713 530.2473742694899 1348.1160976004498 528.2170712391869Q1344.9342794186318 526.1867682088839 1343.2070066913593 522.8534348755505Q1341.5100369943893 519.4897985119142 1341.0251885095408 515.1867682088839Q1340.5403400246923 510.85343487555053 1340.5403400246923 506.36858639070203L1340.5403400246923 506.36858639070203ZM1400.6312491156013 492.30798033009603L1400.6312491156013 448.00495002706566Q1400.6312491156013 443.4291924513081 1401.1767036610559 439.0655560876718Q1401.6918551762078 434.67161669373235 1403.4494309337833 431.27767729979297Q1405.2070066913589 427.85343487555053 1408.4797339640863 425.79282881494447Q1411.7221582065104 423.7019197240354 1417.2676127519653 423.7019197240354L1417.2676127519653 423.7019197240354Q1422.6918551762078 423.7019197240354 1425.8736733580258 425.79282881494447Q1429.0857945701468 427.85343487555053 1430.7827642671168 431.27767729979297Q1432.4797339640863 434.67161669373235 1432.9645824489348 439.0655560876718Q1433.4494309337833 443.4291924513081 1433.4494309337833 448.00495002706566L1433.4494309337833 448.00495002706566L1433.4494309337833 489.5504045725202Q1433.4494309337833 492.64131366342934 1433.7221582065108 495.45949548161116Q1433.9948854792378 498.27767729979297 1434.9342794186318 500.45949548161116Q1435.9039763883288 502.64131366342934 1437.7524612368138 503.97464699676266Q1439.6312491156018 505.307980330096 1442.8130672974198 505.307980330096L1442.8130672974198 505.307980330096Q1447.0857945701468 505.307980330096 1449.8130672974198 502.42919245130815Q1452.5100369943893 499.5504045725202 1454.0554915398438 494.5504045725202Q1455.6009460852983 489.5504045725202 1456.1464006307529 482.7928288149445Q1456.6918551762078 476.0352530573687 1456.6918551762078 468.2473742694899L1456.6918551762078 468.2473742694899L1456.6918551762078 448.00495002706566Q1456.6918551762078 443.4291924513081 1457.2070066913593 439.0655560876718Q1457.7524612368138 434.67161669373235 1459.5100369943893 431.27767729979297Q1461.2676127519649 427.85343487555053 1464.5100369943893 425.79282881494447Q1467.7524612368134 423.7019197240354 1473.2979157822683 423.7019197240354L1473.2979157822683 423.7019197240354Q1478.7221582065104 423.7019197240354 1481.9342794186318 425.79282881494447Q1485.1160976004498 427.85343487555053 1486.8130672974198 431.27767729979297Q1488.5403400246923 434.67161669373235 1488.9948854792378 439.0655560876718Q1489.4797339640863 443.4291924513081 1489.4797339640863 448.00495002706566L1489.4797339640863 448.00495002706566L1489.4797339640863 506.15646517858085Q1489.4797339640863 510.7625257846414 1489.1767036610559 515.0655560876718Q1488.8433703277228 519.368586390702 1487.2373097216623 522.7322227543384Q1485.6615521459044 526.0958591179748 1482.4191279034803 528.1564651785809Q1479.1464006307533 530.2473742694899 1473.2979157822683 530.2473742694899L1473.2979157822683 530.2473742694899Q1467.4494309337833 530.2473742694899 1464.1464006307529 528.2776772997929Q1460.8433703277228 526.307980330096 1459.1767036610559 523.5504045725203Q1457.5403400246923 520.7625257846414 1457.1160976004498 517.6716166937324Q1456.6918551762078 514.5807076028233 1456.6918551762078 512.338283360399L1456.6918551762078 512.338283360399Q1455.8130672974198 515.4291924513082 1454.0251885095408 518.6413136634294Q1452.2070066913593 521.8231318452475 1449.3888248731773 524.3988894210052Q1446.5706430549953 526.9443439664597 1442.6009460852983 528.6110106331263Q1438.6615521459044 530.2473742694899 1433.4494309337833 530.2473742694899L1433.4494309337833 530.2473742694899Q1427.6009460852983 530.2473742694899 1421.7221582065104 528.338283360399Q1415.8736733580258 526.398889421005 1411.1767036610559 521.9443439664597Q1406.5100369943893 517.4594954816112 1403.5706430549953 510.2170712391869Q1400.6312491156013 502.97464699676266 1400.6312491156013 492.30798033009603L1400.6312491156013 492.30798033009603ZM1524.2070066913593 423.7019197240354L1530.1767036610559 423.7019197240354L1530.1767036610559 404.97464699676266Q1530.1767036610559 400.4897985119142 1530.6615521459048 396.2170712391869Q1531.1464006307529 391.97464699676266 1532.8433703277228 388.6110106331263Q1534.5403400246923 385.24737426948997 1537.7524612368138 383.18676820888385Q1540.9342794186318 381.0958591179748 1546.3888248731773 381.0958591179748L1546.3888248731773 381.0958591179748Q1551.6918551762078 381.0958591179748 1554.9039763883288 383.18676820888385Q1558.0857945701468 385.24737426948997 1559.7524612368138 388.6110106331263Q1561.3888248731773 391.97464699676266 1561.8736733580258 396.2170712391869Q1562.3585218428743 400.4897985119142 1562.3585218428743 404.97464699676266L1562.3585218428743 404.97464699676266L1562.3585218428743 423.7019197240354L1571.0857945701468 423.7019197240354Q1573.8736733580258 423.7019197240354 1576.6312491156013 423.97464699676266Q1579.4191279034803 424.24737426948997 1581.6009460852983 425.5201015422172Q1583.7827642671168 426.79282881494447 1585.1160976004498 429.36858639070203Q1586.4494309337833 431.9140409361566 1586.4494309337833 436.48979851191416L1586.4494309337833 436.48979851191416Q1586.4494309337833 440.85343487555053 1585.1160976004498 443.4291924513081Q1583.7827642671168 445.97464699676266 1581.6009460852983 447.2473742694899Q1579.4191279034803 448.5504045725202 1576.6312491156013 448.9140409361566Q1573.8736733580258 449.27767729979297 1571.0857945701468 449.27767729979297L1571.0857945701468 449.27767729979297L1562.3585218428743 449.27767729979297L1562.3585218428743 486.5807076028233Q1562.3585218428743 488.7019197240354 1562.5100369943893 491.0958591179748Q1562.6918551762078 493.48979851191416 1563.6312491156018 495.5201015422172Q1564.6009460852983 497.5504045725202 1566.5100369943893 498.8837379058536Q1568.4191279034803 500.2170712391869 1571.9342794186318 500.2170712391869L1571.9342794186318 500.2170712391869Q1575.7827642671168 500.2170712391869 1578.5100369943893 500.79282881494447Q1581.2070066913593 501.36858639070203 1582.9645824489348 502.85343487555053Q1584.7221582065104 504.36858639070203 1585.5706430549953 507.0352530573688Q1586.4494309337833 509.6716166937324 1586.4494309337833 513.8534348755505L1586.4494309337833 513.8534348755505Q1586.4494309337833 518.0958591179748 1584.4494309337833 521.1867682088839Q1582.4797339640863 524.2776772997929 1579.1767036610559 526.307980330096Q1575.8736733580258 528.338283360399 1571.5100369943893 529.2776772997929Q1567.1464006307529 530.2473742694899 1562.3585218428743 530.2473742694899L1562.3585218428743 530.2473742694899Q1554.7827642671168 530.2473742694899 1549.4191279034803 528.6413136634294Q1544.0251885095408 527.0655560876718 1540.4797339640863 524.1261621482778Q1536.9039763883288 521.1867682088839 1534.8130672974198 517.0958591179748Q1532.7524612368138 512.9746469967627 1531.7221582065104 507.8837379058536Q1530.7221582065104 502.76252578464147 1530.4494309337833 496.85343487555053Q1530.1767036610559 490.94434396645966 1530.1767036610559 484.42919245130815L1530.1767036610559 484.42919245130815L1530.1767036610559 449.27767729979297L1524.2070066913593 449.27767729979297Q1521.4494309337833 449.27767729979297 1518.7221582065108 448.9140409361566Q1516.0251885095408 448.5504045725202 1513.8736733580258 447.2473742694899Q1511.7524612368138 445.97464699676266 1510.4191279034803 443.4291924513081Q1509.0857945701468 440.85343487555053 1509.0857945701468 436.48979851191416L1509.0857945701468 436.48979851191416Q1509.0857945701468 431.9140409361566 1510.4191279034803 429.36858639070203Q1511.7524612368138 426.79282881494447 1513.8736733580258 425.5201015422172Q1516.0251885095408 424.24737426948997 1518.7221582065108 423.97464699676266Q1521.4494309337833 423.7019197240354 1524.2070066913593 423.7019197240354L1524.2070066913593 423.7019197240354ZM1611.7827642671168 506.36858639070203L1611.7827642671168 447.5807076028233Q1611.7827642671168 443.0958591179748 1612.2676127519653 438.85343487555053Q1612.7524612368138 434.5807076028233 1614.4494309337833 431.2170712391869Q1616.1464006307529 427.85343487555053 1619.3585218428743 425.79282881494447Q1622.5403400246923 423.7019197240354 1627.9948854792378 423.7019197240354L1627.9948854792378 423.7019197240354Q1633.4191279034803 423.7019197240354 1636.6009460852983 425.79282881494447Q1639.8130672974198 427.85343487555053 1641.5100369943893 431.2170712391869Q1643.2070066913593 434.5807076028233 1643.6918551762074 438.85343487555053Q1644.1767036610559 443.0958591179748 1644.1767036610559 447.5807076028233L1644.1767036610559 447.5807076028233L1644.1767036610559 506.36858639070203Q1644.1767036610559 510.85343487555053 1643.6918551762074 515.1867682088839Q1643.2070066913593 519.4897985119142 1641.5100369943893 522.8534348755505Q1639.8130672974198 526.1867682088839 1636.6009460852983 528.2170712391869Q1633.4191279034803 530.2473742694899 1627.9948854792378 530.2473742694899L1627.9948854792378 530.2473742694899Q1622.5403400246923 530.2473742694899 1619.3585218428743 528.2170712391869Q1616.1464006307529 526.1867682088839 1614.4494309337833 522.8534348755505Q1612.7524612368138 519.4897985119142 1612.2676127519653 515.1867682088839Q1611.7827642671168 510.85343487555053 1611.7827642671168 506.36858639070203L1611.7827642671168 506.36858639070203ZM1644.3888248731773 397.27767729979297L1644.3888248731773 397.27767729979297Q1644.3888248731773 405.4897985119142 1640.1160976004498 409.4897985119142Q1635.8736733580258 413.48979851191416 1628.2070066913593 413.48979851191416L1628.2070066913593 413.48979851191416Q1620.5403400246923 413.48979851191416 1616.2676127519653 409.4897985119142Q1611.9948854792378 405.4897985119142 1611.9948854792378 397.27767729979297L1611.9948854792378 397.27767729979297Q1611.9948854792378 388.76252578464147 1616.2676127519653 384.9443439664596Q1620.5403400246923 381.0958591179748 1628.2070066913593 381.0958591179748L1628.2070066913593 381.0958591179748Q1636.3888248731773 381.0958591179748 1640.3888248731773 384.9443439664596Q1644.3888248731773 388.76252578464147 1644.3888248731773 397.27767729979297ZM1670.3888248731773 490.1867682088839L1670.3888248731773 463.76252578464147Q1670.3888248731773 453.97464699676266 1673.0554915398438 447.15646517858085Q1675.7221582065108 440.33828336039903 1679.9039763883288 435.76252578464147Q1684.1160976004498 431.15646517858085 1689.2979157822683 428.6110106331263Q1694.4494309337833 426.0655560876717 1699.4797339640863 424.79282881494447Q1704.4797339640863 423.48979851191416 1708.7827642671168 423.1867682088839Q1713.1160976004503 422.85343487555053 1715.5403400246923 422.85343487555053L1715.5403400246923 422.85343487555053Q1717.9948854792378 422.85343487555053 1722.2676127519653 423.1867682088839Q1726.5403400246923 423.48979851191416 1731.3888248731773 424.79282881494447Q1736.2373097216623 426.0655560876717 1741.1767036610563 428.6110106331263Q1746.1160976004498 431.15646517858085 1750.1160976004498 435.76252578464147Q1754.1160976004498 440.33828336039903 1756.6918551762074 447.15646517858085Q1759.2373097216623 453.97464699676266 1759.2373097216623 463.76252578464147L1759.2373097216623 463.76252578464147L1759.2373097216623 490.1867682088839Q1759.2373097216623 500.00495002706566 1756.6918551762074 506.8231318452475Q1754.1160976004498 513.6413136634293 1750.1160976004498 518.2170712391869Q1746.1160976004498 522.7928288149444 1741.1767036610563 525.338283360399Q1736.2373097216623 527.9140409361567 1731.3888248731773 529.1867682088839Q1726.5403400246923 530.4594954816112 1722.2676127519653 530.7928288149444Q1717.9948854792378 531.0958591179748 1715.5403400246923 531.0958591179748L1715.5403400246923 531.0958591179748Q1713.1160976004503 531.0958591179748 1708.7827642671168 530.7928288149444Q1704.4797339640863 530.4594954816112 1699.4797339640863 529.1867682088839Q1694.4494309337833 527.9140409361567 1689.2979157822683 525.338283360399Q1684.1160976004498 522.7928288149444 1679.9039763883288 518.2170712391869Q1675.7221582065108 513.6413136634293 1673.0554915398438 506.8231318452475Q1670.3888248731773 500.00495002706566 1670.3888248731773 490.1867682088839L1670.3888248731773 490.1867682088839ZM1703.2070066913593 459.0958591179748L1703.2070066913593 497.64131366342934Q1703.2979157822683 500.7322227543384 1704.6918551762078 503.0958591179748L1704.6918551762078 503.0958591179748Q1705.8736733580258 505.2170712391869 1708.3585218428743 506.85343487555053Q1710.8736733580258 508.5201015422172 1715.5403400246923 508.5201015422172L1715.5403400246923 508.5201015422172Q1720.0251885095408 508.5201015422172 1722.4191279034803 506.85343487555053Q1724.8130672974198 505.2170712391869 1725.9948854792378 503.0958591179748L1725.9948854792378 503.0958591179748Q1727.2676127519653 500.7322227543384 1727.4797339640863 497.64131366342934L1727.4797339640863 497.64131366342934L1727.4797339640863 459.0958591179748Q1727.2676127519653 455.8837379058536 1725.9948854792378 453.2170712391869L1725.9948854792378 453.2170712391869Q1724.8130672974198 451.0958591179748 1722.4191279034803 449.2170712391869Q1720.0251885095408 447.36858639070203 1715.5403400246923 447.36858639070203L1715.5403400246923 447.36858639070203Q1710.8736733580258 447.36858639070203 1708.3585218428743 449.2170712391869Q1705.8736733580258 451.0958591179748 1704.6918551762078 453.2170712391869L1704.6918551762078 453.2170712391869Q1703.2979157822683 455.8837379058536 1703.2070066913593 459.0958591179748L1703.2070066913593 459.0958591179748ZM1870.4494309337833 461.64131366342934L1870.4494309337833 505.94434396645966Q1870.4494309337833 510.5504045725203 1869.9342794186318 514.9140409361567Q1869.3888248731773 519.2776772997929 1867.6312491156018 522.6716166937324Q1865.8736733580258 526.0958591179748 1862.6312491156013 528.1564651785809Q1859.3888248731773 530.2473742694899 1853.8433703277228 530.2473742694899L1853.8433703277228 530.2473742694899Q1848.3888248731773 530.2473742694899 1845.2070066913589 528.1564651785809Q1842.0251885095408 526.0958591179748 1840.2979157822683 522.6716166937324Q1838.6009460852983 519.2776772997929 1838.1160976004503 514.9140409361567Q1837.6312491156013 510.5504045725203 1837.6312491156013 505.94434396645966L1837.6312491156013 505.94434396645966L1837.6312491156013 464.3988894210051Q1837.6312491156013 461.42919245130815 1837.3888248731773 458.5504045725202Q1837.1160976004503 455.67161669373235 1836.1464006307533 453.48979851191416Q1835.2070066913593 451.30798033009603 1833.3282188125713 449.97464699676266Q1831.4494309337833 448.64131366342934 1828.2676127519653 448.64131366342934L1828.2676127519653 448.64131366342934Q1823.9039763883288 448.64131366342934 1821.2373097216623 451.5201015422172Q1818.5706430549953 454.3988894210051 1817.0251885095408 459.3988894210051Q1815.4797339640863 464.3988894210051 1814.9645824489348 471.1867682088839Q1814.4191279034803 477.94434396645966 1814.4191279034803 485.7019197240354L1814.4191279034803 485.7019197240354L1814.4191279034803 505.94434396645966Q1814.4191279034803 510.5504045725203 1813.8736733580258 514.9140409361567Q1813.3585218428743 519.2776772997929 1811.6009460852983 522.6716166937324Q1809.8433703277228 526.0958591179748 1806.6009460852983 528.1564651785809Q1803.3282188125713 530.2473742694899 1797.8130672974198 530.2473742694899L1797.8130672974198 530.2473742694899Q1792.3585218428743 530.2473742694899 1789.1767036610563 528.1564651785809Q1785.9645824489348 526.0958591179748 1784.2676127519653 522.6716166937324Q1782.5706430549958 519.2776772997929 1782.0857945701468 514.9140409361567Q1781.6009460852983 510.5504045725203 1781.6009460852983 505.94434396645966L1781.6009460852983 505.94434396645966L1781.6009460852983 447.79282881494447Q1781.6009460852983 443.2170712391869 1781.9342794186318 438.8837379058536Q1782.2373097216623 434.5807076028233 1783.8433703277228 431.2170712391869Q1785.4494309337833 427.85343487555053 1788.6918551762074 425.79282881494447Q1791.9342794186318 423.7019197240354 1797.8130672974198 423.7019197240354L1797.8130672974198 423.7019197240354Q1803.6615521459048 423.7019197240354 1806.9645824489348 425.67161669373235Q1810.2676127519653 427.64131366342934 1811.9039763883288 430.42919245130815Q1813.5706430549953 433.1867682088839 1813.9948854792378 436.27767729979297Q1814.4191279034803 439.3685863907021 1814.4191279034803 441.6110106331263L1814.4191279034803 441.6110106331263Q1815.2676127519653 438.5201015422172 1817.0857945701468 435.33828336039903Q1818.9039763883288 432.1261621482778 1821.7221582065108 429.5807076028233Q1824.5403400246923 427.0049500270657 1828.4797339640863 425.36858639070203Q1832.4191279034803 423.7019197240354 1837.6312491156013 423.7019197240354L1837.6312491156013 423.7019197240354Q1843.5100369943893 423.7019197240354 1849.3585218428743 425.64131366342934Q1855.2070066913589 427.5504045725202 1859.9039763883288 432.0352530573687Q1864.6009460852983 436.48979851191416 1867.5403400246923 443.7322227543384Q1870.4494309337833 450.97464699676266 1870.4494309337833 461.64131366342934L1870.4494309337833 461.64131366342934Z " fill="#ffffff" transform="matrix(0.467801990016265,0,0,0.467801990016265,0,86.63740960344259)"/></g></svg>